<?xml version="1.0" standalone="no"?>
<!DOCTYPE svg PUBLIC "-//W3C//DTD SVG 20010904//EN"
 "http://www.w3.org/TR/2001/REC-SVG-20010904/DTD/svg10.dtd">
<svg version="1.0" xmlns="http://www.w3.org/2000/svg"
 width="784.000000pt" height="784.000000pt" viewBox="0 0 784.000000 784.000000"
 preserveAspectRatio="xMidYMid meet">
<metadata>
Created by potrace 1.11, written by Peter Selinger 2001-2013
</metadata>
<g transform="translate(0.000000,784.000000) scale(0.100000,-0.100000)"
fill="#000000" stroke="none">
<path d="M5160 6683 c-69 -18 -134 -34 -145 -37 -11 -2 -121 -30 -245 -61
-124 -31 -234 -58 -245 -60 -11 -1 -33 -8 -50 -14 -16 -7 -31 -12 -33 -12 -4
2 -46 -8 -357 -86 -165 -41 -307 -77 -315 -78 -8 -2 -15 -4 -15 -5 0 -1 -10
-3 -23 -6 -12 -2 -122 -29 -243 -60 -122 -31 -229 -58 -238 -59 -9 -2 -16 -4
-16 -5 0 -1 -7 -3 -15 -5 -8 -1 -42 -10 -75 -18 -33 -9 -71 -18 -85 -21 -14
-3 -70 -17 -125 -31 -55 -14 -108 -28 -118 -30 -10 -2 -27 -7 -37 -10 -10 -3
-27 -8 -37 -10 -15 -3 -49 -11 -123 -29 -8 -2 -44 -12 -80 -21 -71 -18 -92
-23 -130 -31 -14 -3 -45 -11 -70 -19 -25 -8 -58 -16 -75 -19 -16 -3 -72 -16
-122 -30 -51 -14 -103 -27 -115 -30 -13 -2 -52 -12 -88 -21 -36 -9 -72 -18
-80 -20 -8 -2 -80 -20 -160 -40 -145 -37 -162 -41 -200 -50 -12 -2 -53 -13
-93 -24 -40 -10 -85 -22 -102 -24 -16 -3 -51 -12 -78 -20 -26 -9 -50 -16 -52
-16 -3 -1 -6 -1 -7 -2 -3 -1 -11 -2 -58 -13 -14 -3 -36 -8 -50 -11 -14 -3 -29
-7 -35 -8 -5 -2 -16 -6 -23 -10 -6 -5 -12 -6 -12 -3 0 3 -21 -1 -47 -9 -27 -8
-59 -16 -73 -18 -14 -3 -54 -13 -90 -22 -36 -9 -72 -19 -80 -21 -8 -2 -51 -13
-95 -24 -44 -12 -91 -24 -105 -26 -47 -10 -155 -57 -205 -90 -71 -47 -175
-151 -175 -174 0 -6 -4 -10 -10 -10 -5 0 -10 -7 -10 -15 0 -8 -4 -15 -8 -15
-6 0 -26 -38 -38 -75 -2 -5 -10 -29 -18 -52 -22 -59 -33 -142 -30 -215 3 -80
8 -105 39 -203 14 -44 25 -87 25 -97 0 -9 4 -19 9 -22 5 -3 12 -18 15 -33 4
-16 28 -93 53 -173 26 -80 48 -150 49 -155 2 -13 128 -410 154 -485 10 -30 24
-76 31 -103 8 -26 16 -47 19 -47 7 0 4 429 -3 436 -3 3 -2 17 4 31 6 16 6 22
-1 18 -6 -4 -7 2 -2 17 10 27 7 132 -4 149 -4 7 -3 10 2 6 5 -3 8 26 6 66 -1
40 -3 77 -2 82 0 6 1 47 2 93 2 45 -1 82 -5 82 -5 0 -6 4 -2 9 3 5 7 61 10
123 2 62 9 131 14 153 6 22 10 40 10 40 -1 0 11 40 26 85 20 63 81 182 108
210 9 11 17 22 17 25 0 17 139 155 200 199 101 71 257 135 380 154 43 7 813
11 2280 11 1218 0 2313 1 2433 1 139 0 217 4 217 10 0 6 -9 32 -21 58 -12 26
-25 56 -29 67 -26 66 -55 135 -70 170 -10 22 -30 69 -45 105 -15 36 -33 79
-40 95 -8 17 -44 102 -81 190 -109 260 -120 284 -152 330 -65 93 -189 154
-307 152 -33 -1 -116 -16 -185 -34z"/>
<path d="M7454 5619 c-24 -5 -87 -35 -148 -73 -59 -36 -109 -66 -112 -66 -3 0
-10 -5 -17 -10 -31 -26 -86 -58 -91 -52 -3 3 -6 1 -6 -5 0 -6 -13 -16 -30 -23
-16 -7 -30 -15 -30 -19 0 -4 -12 -12 -27 -19 -16 -6 -48 -25 -73 -42 -25 -16
-52 -33 -60 -37 -8 -3 -45 -26 -82 -50 -37 -24 -70 -43 -73 -43 -4 0 -21 -10
-38 -22 -35 -25 -64 -43 -87 -54 -8 -4 -25 -15 -38 -25 -22 -17 -25 -17 -66 1
-107 48 -6 46 -2656 44 -1372 -1 -2508 -4 -2525 -8 -16 -3 -41 -8 -55 -10 -14
-3 -61 -24 -106 -45 -117 -58 -247 -194 -268 -281 -1 -3 -7 -14 -13 -25 -37
-69 -37 -87 -38 -1615 0 -817 3 -1507 8 -1535 20 -118 70 -215 157 -305 77
-80 167 -133 271 -159 71 -18 160 -19 2559 -17 l2485 2 65 23 c221 78 369 260
397 486 5 40 5 3035 0 3060 -4 20 38 52 143 111 19 10 37 21 40 24 3 3 73 46
155 95 83 50 152 93 155 96 3 3 25 17 50 31 84 46 255 153 258 161 2 4 9 7 16
7 21 0 88 63 102 96 18 43 18 102 0 136 -55 104 -94 148 -148 164 -18 6 -52 7
-74 3z"/>
</g>
</svg>
