<?xml version="1.0" encoding="UTF-8"?>
<svg width="1200px" height="1318px" viewBox="0 0 1200 1318" version="1.1" xmlns="http://www.w3.org/2000/svg" xmlns:xlink="http://www.w3.org/1999/xlink">
    <title>creditbroom-front</title>
    <g id="Page-1" stroke="none" stroke-width="1" fill="none" fill-rule="evenodd">
        <g id="Group" transform="translate(-1.000000, -12.000000)">
            <path d="M917.712,907.86267 C917.64628,907.57326 911.28908,878.58396 924.27212,854.50653 C937.25512,830.43026 964.96864,819.81207 965.24712,819.70715 L966.51371,819.2321 L966.81292,820.55232 C966.87864,820.84172 973.23584,849.83103 960.2528,873.90845 C947.27034,897.98472 919.55628,908.60291 919.2778,908.70783 L918.01063,909.18288 L917.712,907.86267 Z M964.77666,822.45367 C959.22544,824.84158 937.31627,835.29258 926.35102,855.62729 C915.38462,875.96429 918.69322,900.01406 919.74824,905.96135 C925.29716,903.57921 947.19768,893.14435 958.17388,872.78773 C969.1397,852.45188 965.83226,828.40443 964.77666,822.45367 Z" id="Shape" fill="#3F3D56" fill-rule="nonzero"></path>
            <path d="M950.33117,865.46291 C926.99996,879.49974 918.01437,907.38075 918.01437,907.38075 C918.01437,907.38075 946.85615,912.50356 970.18737,898.46675 C993.51859,884.42994 1002.50417,856.54891 1002.50417,856.54891 C1002.50417,856.54891 973.66238,851.42608 950.33117,865.46291 Z" id="Path" fill="#D0CDE1" fill-rule="nonzero"></path>
            <path d="M443.41828,781 C440.64386,781 437.84113,780.95605 435.09015,780.87012 L435.15265,778.87207 C439.10285,778.99512 443.1341,779.0293 447.10285,778.97461 L447.13019,780.97461 C445.894843,780.99121 444.65754,780.999673 443.41828,781 Z M459.16339,780.53613 L459.0462,778.54004 C463.00226,778.30664 467.0091,777.97852 470.95538,777.56543 L471.16438,779.55371 C467.18781,779.97067 463.1507,780.30176 459.16339,780.53613 L459.16339,780.53613 Z M423.06769,780.22461 C419.07843,779.91894 415.04718,779.51855 411.08527,779.03223 L411.32941,777.04785 C415.26105,777.5293 419.26105,777.92773 423.22003,778.23047 L423.06769,780.22461 Z M483.10675,778.02539 L482.80695,776.04883 C486.73761,775.45215 490.69855,774.75977 494.57648,773.98926 L494.96613,775.95019 C491.05792,776.72656 487.06769,777.4248 483.10676,778.02539 L483.10675,778.02539 Z M399.17169,777.29394 C395.23078,776.62594 391.25275,775.8584 387.34845,775.01074 L387.77277,773.05566 C391.64728,773.89746 395.59454,774.65918 399.50568,775.32129 L399.17169,777.29394 Z M506.72003,773.33203 L506.23956,771.39062 C510.09796,770.43652 513.97785,769.38184 517.77179,768.25684 L518.34015,770.17484 C514.51691,771.30859 510.60776,772.37109 506.72003,773.33203 Z M375.64386,772.18555 C371.77814,771.15723 367.888,770.02637 364.08136,768.82227 L364.6839,766.91602 C368.46173,768.11035 372.32208,769.23242 376.15753,770.25195 L375.64386,772.18555 Z M529.80206,766.48437 L529.14576,764.59567 C532.8899,763.29391 536.65553,761.88667 540.3401,760.41208 L541.08229,762.2695 C537.37042,763.75488 533.5755,765.17285 529.80206,766.48437 Z M352.65656,764.91797 C348.90216,763.53809 345.12433,762.04883 341.42902,760.49219 L342.20538,758.64844 C345.87238,760.19336 349.62091,761.6709 353.34699,763.04102 L352.65656,764.91797 Z M552.13117,757.5498 L551.30304,755.72949 C554.89874,754.0957 558.51304,752.35156 562.04523,750.5459 L562.95538,752.32715 C559.39576,754.14648 555.75421,755.90332 552.13117,757.5498 Z M573.5296,746.61133 L572.53937,744.875 C575.98761,742.90723 579.42999,740.83887 582.76886,738.72656 L583.83722,740.41602 C580.47296,742.54492 577.00519,744.62988 573.5296,746.61133 L573.5296,746.61133 Z M593.85285,733.75391 L592.70831,732.11523 C595.95538,729.84668 599.19562,727.4707 602.33917,725.05469 L603.55792,726.64062 C600.39093,729.07519 597.12531,731.46875 593.85285,733.75391 L593.85285,733.75391 Z M289.02716,730.9375 C285.79916,728.59277 282.57453,726.13672 279.44216,723.63574 L280.69021,722.07324 C283.79861,724.55469 286.9988,726.99219 290.20193,729.31836 L289.02716,730.9375 Z M612.92999,719.0918 L611.64093,717.5625 C614.6673,715.00879 617.67902,712.34766 620.59406,709.65234 L621.95148,711.12109 C619.01495,713.83691 615.97976,716.51855 612.92999,719.0918 L612.92999,719.0918 Z M270.20199,715.90625 C267.19564,713.27344 264.20882,710.53516 261.32499,707.7666 L262.70976,706.32324 C265.57206,709.07129 268.53593,711.78906 271.51933,714.40234 L270.20199,715.90625 Z M630.60287,702.74512 L629.17904,701.34082 C631.96904,698.51367 634.72884,695.58789 637.38021,692.64551 L638.86654,693.9834 C636.19464,696.94922 633.41437,699.89648 630.60285,702.74512 L630.60287,702.74512 Z M252.82992,699.2334 C250.07162,696.33301 247.34749,693.33496 244.73324,690.32324 L246.24398,689.01269 C248.83822,692.00195 251.54134,694.97656 254.27913,697.85449 L252.82992,699.2334 Z M646.72296,684.85352 L645.17804,683.58398 C647.69855,680.5166 650.18004,677.35156 652.55597,674.1748 L654.15753,675.37207 C651.76398,678.57324 649.263,681.76367 646.72296,684.85352 Z M237.05206,681.05667 C234.57501,677.92679 232.13606,674.69534 229.80255,671.45218 L231.42555,670.28418 C233.74147,673.50195 236.16188,676.70898 238.62037,679.81641 L237.05206,681.05667 Z M661.15167,665.55957 L659.49738,664.43652 C661.72785,661.15234 663.91238,657.77246 665.98956,654.38867 L667.69464,655.43555 C665.59992,658.84473 663.39876,662.25098 661.15167,665.55957 Z M223.00076,661.53027 C220.82157,658.18945 218.68876,654.75195 216.66092,651.31055 L218.38358,650.29492 C220.39627,653.70992 222.51297,657.12207 224.67558,660.43652 L223.00076,661.53027 Z M673.76688,645.01953 L672.01688,644.05273 C673.9368,640.57812 675.80203,637.00973 677.56278,633.44629 L679.35578,634.33301 C677.58234,637.92285 675.70148,641.51855 673.76691,645.01953 L673.76688,645.01953 Z M684.44754,623.39844 L682.61554,622.5957 C684.20929,618.95605 685.73954,615.22852 687.16437,611.51758 L689.03156,612.23437 C687.59601,615.97461 686.05304,619.73047 684.44757,623.39844 L684.44754,623.39844 Z M200.5452,619.08301 C199.012,615.40332 197.54373,611.63867 196.18143,607.89258 L198.06131,607.20898 C199.41287,610.92676 200.86991,614.66211 202.3909,618.31348 L200.5452,619.08301 Z M693.09598,600.86719 L691.19754,600.23828 C692.44559,596.47754 693.62332,592.63379 694.69754,588.8125 L696.62332,589.3535 C695.54035,593.2041 694.35285,597.07812 693.09601,600.86719 L693.09598,600.86719 Z M192.32892,596.48437 C191.13898,592.67285 190.02081,588.7793 189.00568,584.91016 L190.94025,584.40234 C191.94757,588.24219 193.05744,592.10644 194.2381,595.88867 L192.32892,596.48437 Z M699.61456,577.68945 L697.66632,577.23633 C698.56183,573.38184 699.38019,569.44533 700.09992,565.53809 L702.06671,565.89941 C701.3421,569.83789 700.51691,573.80367 699.61456,577.68945 Z M186.22056,573.19531 C185.38656,569.28906 184.63169,565.30957 183.9774,561.36523 L185.95005,561.03711 C186.59996,564.95211 187.34898,568.90137 188.17662,572.77734 L186.22056,573.19531 Z M703.97296,554.01172 L701.99054,553.74023 C702.52863,549.82323 702.98273,545.8291 703.34113,541.86816 L705.33331,542.04785 C704.97199,546.04004 704.51398,550.06445 703.97296,554.01172 Z M182.27911,549.44531 C181.80744,545.48631 181.42023,541.4541 181.12775,537.46094 L183.12286,537.31445 C183.41242,541.27832 183.79718,545.2793 184.26544,549.20898 L182.27911,549.44531 Z M706.14776,530.03613 L704.14971,529.94629 C704.32744,525.9834 704.41827,521.96387 704.41827,518 L706.41827,518 C706.41827,521.99414 706.32745,526.04394 706.14776,530.03613 Z M180.52176,525.43457 C180.4534,522.98242 180.41876,520.48047 180.41825,518 C180.41825,516.46094 180.431433,514.924807 180.4578,513.3916 L182.4578,513.42676 C182.431433,514.94824 182.41825,516.472653 182.41825,518 C182.41873,520.46191 182.4534,522.94531 182.52078,525.37988 L180.52176,525.43457 Z M182.93241,501.48682 L180.93631,501.36182 C181.18582,497.36572 181.53055,493.32959 181.95975,489.36523 L183.94803,489.58057 C183.52176,493.51514 183.18048,497.52051 182.93244,501.48682 L182.93241,501.48682 Z M703.12686,489.28523 C702.72745,485.34235 702.17801,483.41992 701.59793,479.49414 L703.57645,479.20214 C704.16045,483.1577 704.66145,486.17724 705.06473,490.14989 L703.12686,489.28523 Z M185.50516,477.73389 L183.5286,477.42822 C184.14139,473.47168 184.8533,469.48389 185.64481,465.57422 L187.60481,465.9707 C186.81964,469.85059 186.1131,473.80811 185.50519,477.73389 L185.50516,477.73389 Z M699.57938,467.71826 C698.81668,463.81689 697.95633,459.88965 697.02078,456.0459 L698.96414,455.57324 C699.90653,459.44624 700.77371,463.40381 701.54227,467.33447 L699.57938,467.71826 Z M190.24249,454.31689 L188.30255,453.83057 C189.27374,449.95703 190.34943,446.05127 191.49982,442.22119 L193.41482,442.79639 C192.27376,446.59717 191.20636,450.47314 190.24249,454.31689 Z M693.92706,444.50342 C692.81183,440.69531 691.59306,436.86475 690.30499,433.1167 L692.19562,432.46631 C693.49445,436.24316 694.72296,440.104 695.84699,443.94092 L693.92706,444.50342 Z M197.12726,431.40332 L195.24054,430.74023 C196.56964,426.95947 198.0047,423.16064 199.50568,419.44923 L201.36017,420.19923 C199.87042,423.88184 198.44611,427.65186 197.12726,431.40332 L197.12726,431.40332 Z M686.16046,421.90867 C684.70146,418.22801 683.13898,414.53416 681.51593,410.92918 L683.34015,410.10789 C684.97589,413.7407 686.55015,417.46289 688.01984,421.17137 L686.16046,421.90867 Z M206.10382,409.20605 L204.28644,408.37105 C205.95685,404.73336 207.73468,401.08541 209.57062,397.52877 L211.34796,398.44577 C209.5257,401.97559 207.76154,405.59567 206.10382,409.20605 Z M676.37238,400.17041 C674.58238,396.63965 672.68585,393.10156 670.73566,389.65576 L672.47589,388.67041 C674.44171,392.14307 676.35189,395.70801 678.15558,399.26611 L676.37238,400.17041 Z M217.08087,387.94092 L215.34747,386.94287 C217.34259,383.47852 219.4466,380.01074 221.60138,376.63672 L223.28693,377.71289 C221.14876,381.06152 219.06036,384.50293 217.08087,387.94092 Z M664.62238,379.40576 C662.5091,376.0415 660.2962,372.68994 658.04523,369.44385 L659.68781,368.3042 C661.95636,371.5752 664.18681,374.95215 666.31574,378.34228 L664.62238,379.40576 Z M229.95392,367.78223 L228.31915,366.62988 C230.62482,363.35988 233.03546,360.10059 235.48566,356.94238 L237.06574,358.16797 C234.63458,361.30273 232.24152,364.53711 229.95392,367.78223 Z M651.01792,359.79004 C648.60777,356.6333 646.098,353.49512 643.55601,350.46289 L645.08921,349.17822 C647.64976,352.23389 650.17906,355.39551 652.60777,358.57617 L651.01792,359.79004 Z M244.60724,348.89111 L243.08478,347.59424 C245.67218,344.55518 248.36896,341.53024 251.09992,338.60352 L252.56183,339.96777 C249.85187,342.87256 247.1756,345.875 244.60724,348.89111 Z M635.67706,341.48291 C632.99054,338.55859 630.20343,335.66016 627.39484,332.86914 L628.80499,331.45019 C631.63507,334.26319 634.44269,337.18311 637.14972,340.12939 L635.67706,341.48291 Z M260.91193,331.41894 L259.51349,329.98923 C262.37335,327.19138 265.33283,324.42523 268.3089,321.76804 L269.6409,323.26022 C266.68732,325.89697 263.75031,328.64209 260.91193,331.41894 L260.91193,331.41894 Z M618.72976,324.63916 C615.78542,321.96875 612.74538,319.33496 609.6946,316.81103 L610.96999,315.27003 C614.04324,317.81303 617.10671,320.46681 620.07351,323.15772 L618.72976,324.63916 Z M278.73025,315.50732 L277.46755,313.95654 C280.56081,311.43754 283.75755,308.95312 286.96955,306.57227 L288.16096,308.17871 C284.97296,310.54199 281.80011,313.00732 278.73029,315.50732 L278.73025,315.50732 Z M297.91238,301.29004 L296.79616,299.63086 C300.10671,297.40332 303.51491,295.22217 306.92654,293.14648 L307.9656,294.85548 C304.58038,296.91504 301.19806,299.08008 297.91242,301.29004 L297.91238,301.29004 Z M318.30011,288.88867 L317.34011,287.13379 C320.84255,285.21728 324.43386,283.35791 328.01394,281.60644 L328.89284,283.40332 C325.34015,285.14111 321.77619,286.98633 318.30011,288.88867 Z M559.67023,284.25488 C556.11163,282.48193 552.46613,280.76904 548.83523,279.16406 L549.64382,277.33496 C553.303,278.95215 556.97682,280.67822 560.56277,282.46484 L559.67023,284.25488 Z M339.72199,278.41067 L338.92706,276.57567 C342.58722,274.98925 346.33136,273.46776 350.05499,272.05321 L350.76499,273.92333 C347.06964,275.32667 343.35431,276.83643 339.72199,278.41067 Z M537.77376,274.57617 C534.07064,273.14017 530.2806,271.77002 526.50814,270.50439 L527.14486,268.60791 C530.94564,269.88379 534.76497,271.26416 538.49642,272.71191 L537.77376,274.57617 Z M362.0306,269.93945 L361.4076,268.03906 C365.20838,266.79297 369.08631,265.61963 372.93299,264.55273 L373.46766,266.47949 C369.65021,267.53857 365.80206,268.70267 362.03058,269.93945 L362.0306,269.93945 Z M515.09408,266.96582 C511.27962,265.87842 507.389,264.86572 503.5306,263.95605 L503.9896,262.00977 C507.87828,262.92627 511.7982,263.94677 515.64292,265.04199 L515.09408,266.96582 Z M385.05255,263.55029 L384.60724,261.60059 C388.50372,260.71045 392.47296,259.89941 396.40411,259.19043 L396.75958,261.1582 C392.85776,261.8623 388.91925,262.66699 385.05255,263.55029 Z M491.84015,261.4834 C487.94562,260.7524 483.97882,260.10205 480.04915,259.55029 L480.3265,257.56982 C484.2865,258.12598 488.2845,258.78125 492.20931,259.51758 L491.84015,261.4834 Z M408.56476,259.30713 L408.30011,257.32471 C412.25911,256.79639 416.28546,256.35205 420.26691,256.00537 L420.44074,257.99756 C416.48956,258.34228 412.49445,258.78267 408.56476,259.30713 Z M468.18097,258.15967 C464.24152,257.78857 460.23175,257.50244 456.26203,257.31055 L456.35968,255.3125 C460.35868,255.50635 464.39874,255.79443 468.36847,256.1685 L468.18097,258.15967 Z M432.36652,257.23047 L432.28252,255.23247 C435.9583,255.07915 439.7044,255.00103 443.41827,255.00005 L444.32354,255.00151 L444.31768,257.00151 L443.41827,257.00005 C439.73276,257.00098 436.01398,257.07861 432.36652,257.23047 L432.36652,257.23047 Z" id="Shape" fill="#3F3D56" fill-rule="nonzero"></path>
            <rect id="Rectangle" fill="#3F3D56" fill-rule="nonzero" x="292" y="907.29235" width="732.99951" height="2"></rect>
            <path d="M721.01055,571.02516 L731.01055,726.02516 C731.01055,726.02516 755.01055,787.02516 754.01055,845.02516 C754.01055,845.02516 745.01055,868.02516 752.01055,872.02516 C759.01055,876.02516 763.01055,879.02516 759.01055,882.02516 C755.01055,885.02516 752.01055,892.02516 755.01055,894.02516 C758.01055,896.02516 759.01055,899.02516 758.01055,899.02516 L728.01055,899.02516 C728.01055,899.02516 734.01055,884.02516 725.01055,880.02516 C716.01055,876.02516 721.01055,866.02516 721.01055,866.02516 L654.01055,670.02516 L601.01055,850.02516 C601.01055,850.02516 610.01055,856.02516 603.01055,859.02516 C596.01055,862.02516 593.01055,856.02516 596.01055,862.02516 C599.01055,868.02516 595.01055,871.02516 595.01055,872.02516 C595.01055,873.02516 565.01055,869.02516 565.01055,869.02516 C565.01055,869.02516 580.01055,856.02516 573.01055,853.02516 C566.01055,850.02516 563.01055,847.02516 565.01055,845.02516 C567.01055,843.02516 575.01055,824.02516 575.01055,824.02516 C575.01055,824.02516 579.01055,752.02516 580.01055,749.02516 C581.01055,746.02516 580.01055,732.02516 580.01055,725.02516 C580.01055,718.02516 579.01055,690.02516 582.01055,683.02516 C585.01055,676.02516 588.01055,590.02516 604.01055,580.02516 C620.01055,570.02516 721.01055,571.02516 721.01055,571.02516 Z" id="Path" fill="#2F2E41" fill-rule="nonzero"></path>
            <path d="M594.01055,867.02516 C594.01055,867.02516 614.01055,908.02516 600.01055,913.02516 C586.01055,918.02516 568.01055,914.02516 564.01055,920.02516 C560.01055,926.02516 516.01055,933.02516 515.01055,918.02516 C514.01055,903.02516 563.01055,875.02516 563.01055,875.02516 L569.39349,864.74716 L594.01055,867.02516 Z" id="Path" fill="#2F2E41" fill-rule="nonzero"></path>
            <path d="M756.01055,897.02516 C756.01055,897.02516 776.01055,938.02516 762.01055,943.02516 C748.01055,948.02516 730.01055,944.02516 726.01055,950.02516 C722.01055,956.02516 678.01055,963.02516 677.01055,948.02516 C676.01055,933.02516 725.01055,905.02516 725.01055,905.02516 L731.39349,894.74716 L756.01055,897.02516 Z" id="Path" fill="#2F2E41" fill-rule="nonzero"></path>
            <circle id="Oval" fill="#A0616A" fill-rule="nonzero" cx="663.51054" cy="349.52516" r="33"></circle>
            <polygon id="Path" fill="#A0616A" fill-rule="nonzero" points="686.011 367.025 682.011 396.025 652.011 419.025 644.011 408.025 644.011 370.025"></polygon>
            <path d="M639.01055,404.02516 C639.01055,404.02516 670.01055,407.02516 686.01055,396.02516 L718.01055,585.02516 C718.01055,585.02516 605.01055,594.02516 600.01055,588.02516 L600.01055,529.02516 L620.01055,433.02516 L639.01055,404.02516 Z" id="Path" fill="#3F3D56" fill-rule="nonzero"></path>
            <path d="M683.25692,386.98896 L694.01055,396.02516 C694.01055,396.02516 738.01055,403.02516 735.01055,415.02516 L723.01055,557.02516 L727.01055,605.02516 C727.01055,605.02516 693.01055,596.02516 667.01055,605.02516 C641.01055,614.02516 661.66707,411.62183 661.66707,411.62183 C661.66707,411.62183 685.50329,389.95275 683.25692,386.98896 Z" id="Path" fill="#D0CDE1" fill-rule="nonzero"></path>
            <path d="M644.01055,397.93461 C644.01055,397.93461 612.01055,421.02516 608.01055,436.02516 C604.01055,451.02516 591.01055,609.02516 591.01055,609.02516 C591.01055,609.02516 597.01055,606.02516 600.01055,611.02516 C603.01055,616.02516 649.01055,405.84406 644.01055,397.93461 Z" id="Path" fill="#D0CDE1" fill-rule="nonzero"></path>
            <path d="M630.52639,348.08738 C630.52639,348.08738 626.95394,342.7287 628.32796,336.95782 C629.148958,333.681381 629.473178,330.300211 629.28977,326.92746 C629.28977,326.92746 632.17521,317.58412 635.06066,312.36285 C637.94611,307.14158 636.57208,304.94313 645.64066,303.29431 C654.70924,301.64549 650.99934,289.82891 674.9073,302.60731 C676.556739,304.910293 679.429933,305.994501 682.18961,305.35531 C687.13608,304.3935 688.92231,311.2636 688.92231,311.2636 C688.92231,311.2636 692.21996,309.33997 693.45658,312.08801 C694.6932,314.83605 703.51058,310.43869 703.51058,328.98801 C703.51058,347.53733 693.4767,364.10658 693.4767,364.10658 C693.4767,364.10658 694.21228,332.90446 677.86143,329.74422 C661.51058,326.58398 643.92312,317.37803 639.66366,329.19461 C637.364396,335.826692 634.297834,342.167301 630.52639,348.08738 Z" id="Path" fill="#2F2E41" fill-rule="nonzero"></path>
            <ellipse id="Oval" fill="#A0616A" fill-rule="nonzero" cx="693.83502" cy="351.20587" rx="3.22517" ry="4.30023"></ellipse>
            <path d="M558.30076,660.44967 C550.38793,655.69123 540.8469,656.05467 537.21981,656.4181 C538.6011,659.79042 542.74557,668.3921 550.6584,673.15294 C558.59054,677.92346 568.1189,677.54916 571.74056,677.18814 C570.3599,673.81698 566.21483,665.21167 558.30076,660.44967 Z" id="Path" fill="#D0CDE1" fill-rule="nonzero"></path>
            <path d="M595.48391,754.87352 L546.02797,754.87352 C539.882375,754.87352 534.900385,759.85551 534.900385,766.001105 C534.900385,772.1467 539.882375,777.12869 546.02797,777.12869 L595.48391,777.12869 C601.625386,777.122868 606.600951,772.142584 606.600951,766.001105 C606.600951,759.859626 601.625386,754.879342 595.48391,754.87352 L595.48391,754.87352 Z" id="Path" fill="#D0CDE1" fill-rule="nonzero"></path>
            <path d="M819.43753,637.41567 L542.15328,637.41567 C535.638895,637.41567 529.391314,640.003458 524.784944,644.609819 C520.178574,649.21618 517.59076,655.463755 517.59076,661.97814 L517.59076,797.07656 C517.59076,810.642043 528.587757,821.63904 542.15324,821.63904 L819.43753,821.63904 C825.951904,821.63904 832.199466,819.051214 836.805823,814.444856 C841.41218,809.838497 844,803.590934 844,797.07656 L844,661.97814 C844,655.463764 841.412193,649.216196 836.805834,644.609836 C832.199474,640.003477 825.951906,637.41567 819.43753,637.41567 L819.43753,637.41567 Z M535.29276,654.17104 C535.84033,654.07204 548.82432,651.86245 559.57576,658.33181 C570.32663,664.79996 574.45722,677.30763 574.62746,677.83648 L575.06213,679.18517 L573.66696,679.43269 C571.676589,679.743391 569.664187,679.891184 567.64978,679.8746 C562.76697,679.8746 555.69149,679.06684 549.38332,675.27071 C538.63245,668.80377 534.50247,656.2961 534.33222,655.76725 L533.89755,654.41856 L535.29276,654.17104 Z M595.48388,779.60149 L546.02797,779.60149 C538.516688,779.60149 532.427591,773.512392 532.427591,766.00111 C532.427591,758.489828 538.516688,752.40073 546.02797,752.40073 L595.48391,752.40073 C602.995192,752.40073 609.084289,758.489828 609.084289,766.00111 C609.084289,773.512392 602.995192,779.60149 595.48391,779.60149 L595.48388,779.60149 Z M820.50848,777.12869 C820.484428,785.312869 813.855799,791.941502 805.67162,791.96548 L768.5797,791.96548 C760.395512,791.941502 753.766877,785.312858 753.74291,777.12867 L753.74291,754.87352 C753.766866,746.689332 760.395512,740.06069 768.5797,740.03674 L805.6717,740.03674 C813.855886,740.06069 820.48453,746.689334 820.50848,754.87352 L820.50848,777.12869 Z" id="Shape" fill="#D0CDE1" fill-rule="nonzero"></path>
            <path d="M780.32548,772.8013 L764.2523,772.8013 C761.862346,772.8013 759.924905,774.738741 759.924905,777.128695 C759.924905,779.518649 761.862346,781.45609 764.2523,781.45609 L780.32548,781.45609 C782.715434,781.45609 784.652875,779.518649 784.652875,777.128695 C784.652875,774.738741 782.715434,772.8013 780.32548,772.8013 L780.32548,772.8013 Z M780.32548,778.983305 L764.2523,778.983305 C763.588691,778.984841 762.974831,778.631695 762.642581,778.057248 C762.310331,777.482801 762.310331,776.774609 762.642581,776.200162 C762.974831,775.625715 763.588691,775.272569 764.2523,775.274105 L780.32548,775.274105 C780.989089,775.272569 781.602949,775.625715 781.935199,776.200162 C782.267449,776.774609 782.267449,777.482801 781.935199,778.057248 C781.602949,778.631695 780.989089,778.984841 780.32548,778.983305 L780.32548,778.983305 Z" id="Shape" fill="#D0CDE1" fill-rule="nonzero"></path>
            <path d="M809.99905,772.801295 L793.92587,772.801295 C792.378274,772.798947 790.947228,773.623229 790.17275,774.963096 C789.398272,776.302963 789.398272,777.954427 790.17275,779.294294 C790.947228,780.634161 792.378274,781.458443 793.92587,781.456095 L809.99905,781.456095 C812.389004,781.456095 814.326445,779.518649 814.326445,777.128695 C814.326445,774.738741 812.389004,772.801295 809.99905,772.801295 L809.99905,772.801295 Z M809.99905,778.983305 L793.92587,778.983305 C793.262261,778.984841 792.648401,778.631695 792.316151,778.057248 C791.983901,777.482801 791.983901,776.774609 792.316151,776.200162 C792.648401,775.625715 793.262261,775.272569 793.92587,775.274105 L809.99905,775.274105 C811.021633,775.276485 811.849343,776.106119 811.849343,777.128705 C811.849343,778.151291 811.021633,778.980925 809.99905,778.983305 L809.99905,778.983305 Z" id="Shape" fill="#D0CDE1" fill-rule="nonzero"></path>
            <path d="M780.32548,761.673665 L764.2523,761.673665 C761.862346,761.673665 759.924905,763.611111 759.924905,766.001065 C759.924905,768.391019 761.862346,770.328465 764.2523,770.328465 L780.32548,770.328465 C781.873076,770.330813 783.304122,769.506531 784.0786,768.166664 C784.853078,766.826797 784.853078,765.175333 784.0786,763.835466 C783.304122,762.495599 781.873076,761.671317 780.32548,761.673665 L780.32548,761.673665 Z M780.32548,767.85567 L764.2523,767.85567 C763.228033,767.85567 762.3977,767.025337 762.3977,766.00107 C762.3977,764.976803 763.228033,764.14647 764.2523,764.14647 L780.32548,764.14647 C781.349747,764.14647 782.18008,764.976803 782.18008,766.00107 C782.18008,767.025337 781.349747,767.85567 780.32548,767.85567 L780.32548,767.85567 Z" id="Shape" fill="#D0CDE1" fill-rule="nonzero"></path>
            <path d="M809.99905,761.673665 L793.92587,761.673665 C792.378274,761.671317 790.947228,762.495599 790.17275,763.835466 C789.398272,765.175333 789.398272,766.826797 790.17275,768.166664 C790.947228,769.506531 792.378274,770.330813 793.92587,770.328465 L809.99905,770.328465 C812.389004,770.328465 814.326445,768.391019 814.326445,766.001065 C814.326445,763.611111 812.389004,761.673665 809.99905,761.673665 Z M809.99905,767.85567 L793.92587,767.85567 C792.901603,767.85567 792.07127,767.025337 792.07127,766.00107 C792.07127,764.976803 792.901603,764.14647 793.92587,764.14647 L809.99905,764.14647 C811.023317,764.14647 811.85365,764.976803 811.85365,766.00107 C811.85365,767.025337 811.023317,767.85567 809.99905,767.85567 Z" id="Shape" fill="#D0CDE1" fill-rule="nonzero"></path>
            <path d="M780.32548,750.54613 L764.2523,750.54613 C761.862346,750.54613 759.924905,752.483571 759.924905,754.873525 C759.924905,757.263479 761.862346,759.20092 764.2523,759.20092 L780.32548,759.20092 C782.715434,759.20092 784.652875,757.263479 784.652875,754.873525 C784.652875,752.483571 782.715434,750.54613 780.32548,750.54613 L780.32548,750.54613 Z M780.32548,756.72813 L764.2523,756.72813 C763.228033,756.72813 762.3977,755.897797 762.3977,754.87353 C762.3977,753.849263 763.228033,753.01893 764.2523,753.01893 L780.32548,753.01893 C781.349747,753.01893 782.18008,753.849263 782.18008,754.87353 C782.18008,755.897797 781.349747,756.72813 780.32548,756.72813 L780.32548,756.72813 Z" id="Shape" fill="#D0CDE1" fill-rule="nonzero"></path>
            <path d="M809.99905,750.546125 L793.92587,750.546125 C792.378274,750.543777 790.947228,751.368059 790.17275,752.707926 C789.398272,754.047793 789.398272,755.699257 790.17275,757.039124 C790.947228,758.378991 792.378274,759.203273 793.92587,759.200925 L809.99905,759.200925 C812.386436,759.197291 814.319872,757.260913 814.319872,754.873525 C814.319872,752.486137 812.386436,750.549759 809.99905,750.546125 L809.99905,750.546125 Z M809.99905,756.72813 L793.92587,756.72813 C792.901603,756.72813 792.07127,755.897797 792.07127,754.87353 C792.07127,753.849263 792.901603,753.01893 793.92587,753.01893 L809.99905,753.01893 C811.023317,753.01893 811.85365,753.849263 811.85365,754.87353 C811.85365,755.897797 811.023317,756.72813 809.99905,756.72813 Z" id="Shape" fill="#D0CDE1" fill-rule="nonzero"></path>
            <path d="M732.01055,607.02516 L724.84225,630.41664 C724.84225,630.41664 723.01055,674.02516 699.01055,668.02516 C675.01055,662.02516 706.01055,611.02516 706.01055,611.02516 L713.01055,600.02516 L732.01055,607.02516 Z" id="Path" fill="#A0616A" fill-rule="nonzero"></path>
            <path d="M596.01055,607.02516 L588.84225,630.41664 C588.84225,630.41664 587.01055,674.02516 563.01055,668.02516 C539.01055,662.02516 570.01055,611.02516 570.01055,611.02516 L577.01055,600.02516 L596.01055,607.02516 Z" id="Path" fill="#A0616A" fill-rule="nonzero"></path>
            <path d="M727.01055,408.02516 C727.01055,408.02516 743.01055,404.02516 748.01055,431.02516 C753.01055,458.02516 759.01055,535.02516 759.01055,535.02516 L735.01055,616.02516 C735.01055,616.02516 711.01055,603.02516 706.01055,605.02516 L724.89681,534.70431 L709.01055,463.02516 C709.01055,463.02516 723.01055,408.02516 727.01055,408.02516 Z" id="Path" fill="#D0CDE1" fill-rule="nonzero"></path>
            <polygon id="Path" fill="#000000" fill-rule="nonzero" opacity="0.15" points="703.747 464.393 724.747 534.393 703.747 605.393 715.747 534.393"></polygon>
            <path d="M608.01055,463.02516 L572.01055,605.02516 C572.01055,605.02516 591,611.29235 598,616.29235 L608.01055,463.02516 Z" id="Path" fill="#D0CDE1" fill-rule="nonzero"></path>
            <circle id="Oval" fill="#3F3D56" fill-rule="nonzero" cx="230.3622" cy="719.88438" r="100"></circle>
            <circle id="Oval" fill="#000000" fill-rule="nonzero" opacity="0.1" cx="230.3622" cy="719.88438" r="86"></circle>
            <path d="M226.2413,770.63229 L226.2413,758.11522 C219.91396,757.99178 213.36824,755.76022 209.55021,752.66207 L212.16821,744.35891 C216.705493,747.759142 222.208002,749.625545 227.87763,749.68741 C235.62341,749.68741 240.85988,744.60641 240.85988,737.54248 C240.85988,730.72604 236.60508,726.51274 228.53225,722.79441 C217.40468,717.83741 210.53191,712.13621 210.53191,701.35456 C210.53191,691.06789 216.96844,683.26031 227.00515,681.40144 L227.00515,668.88438 L233.76872,668.88438 L233.76872,680.90587 C238.81225,680.974723 243.731751,682.47924 247.95104,685.24321 L245.22334,693.42293 C241.176746,690.652912 236.381598,689.182888 231.4778,689.20903 C223.07793,689.20903 219.91399,694.90966 219.91399,699.86723 C219.91399,706.31153 223.9504,709.53368 233.44168,713.99568 C244.67791,719.20068 250.35115,725.64503 250.35115,736.67477 C250.35115,746.46526 244.35086,755.63677 233.1141,757.74248 L233.1141,770.63229 L226.2413,770.63229 Z" id="Path" fill="#00BFA6" fill-rule="nonzero"></path>
            <path d="M336,923.29235 C265.390441,933.82256 193.609559,933.82256 123,923.29235 L123,899.29235 C193.684468,908.758668 265.315532,908.758668 336,899.29235 L336,923.29235 Z" id="Path" fill="#3F3D56" fill-rule="nonzero"></path>
            <path d="M336,886.29235 C265.390441,896.82256 193.609559,896.82256 123,886.29235 L123,862.29235 C193.684468,871.758668 265.315532,871.758668 336,862.29235 L336,886.29235 Z" id="Path" fill="#3F3D56" fill-rule="nonzero"></path>
            <path d="M336,849.29235 C265.390441,859.82256 193.609559,859.82256 123,849.29235 L123,825.29235 C193.684468,834.758668 265.315532,834.758668 336,825.29235 L336,849.29235 Z" id="Path" fill="#3F3D56" fill-rule="nonzero"></path>
            <text id="540-FICO-SCORE?" font-family="SFProDisplay-Regular, SF Pro Display" font-size="40" font-weight="normal" fill="#FFFFFF">
                <tspan x="211" y="173">540 FICO SCORE?</tspan>
            </text>
            <text id="Call-us-today-646-30" font-family="SFProDisplay-Regular, SF Pro Display" font-size="40" font-weight="normal" fill="#FFFFFF">
                <tspan x="389.363281" y="1127">Call us today 646-300-9891 </tspan>
                <tspan x="634.5" y="1175"></tspan>
                <tspan x="464.265625" y="1223">            or start on-line</tspan>
                <tspan x="634.5" y="1271"></tspan>
                <tspan x="415.530273" y="1319">          </tspan>
                <tspan x="497.561523" y="1319" font-size="50">creditbroom.com</tspan>
                <tspan x="853.469727" y="1319"> </tspan>
                <tspan x="634.5" y="1379"> </tspan>
            </text>
            <text id="611-FICO-SCORE?" font-family="SFProDisplay-Regular, SF Pro Display" font-size="40" font-weight="normal" fill="#FFFFFF">
                <tspan x="746" y="269">611  FICO SCORE?</tspan>
            </text>
            <text id="610-FICO-SCORE?" font-family="SFProDisplay-Regular, SF Pro Display" font-size="40" font-weight="normal" fill="#FFFFFF">
                <tspan x="0" y="377">610 FICO SCORE?</tspan>
            </text>
            <text id="540-FICO-SCORE?" font-family="SFProDisplay-Regular, SF Pro Display" font-size="40" font-weight="normal" fill="#FFFFFF">
                <tspan x="817" y="490">540 FICO SCORE?</tspan>
            </text>
            <text id="590-FICO-SCORE?" font-family="SFProDisplay-Regular, SF Pro Display" font-size="40" font-weight="normal" fill="#FFFFFF">
                <tspan x="157" y="290">590 FICO SCORE?</tspan>
            </text>
            <text id="late-payments" font-family="SFProDisplay-Regular, SF Pro Display" font-size="50" font-weight="normal" fill="#FFFFFF">
                <tspan x="853" y="370">late payments</tspan>
            </text>
            <text id="Repossessions" font-family="SFProDisplay-Regular, SF Pro Display" font-size="50" font-weight="normal" fill="#FFFFFF">
                <tspan x="888" y="617">Repossessions</tspan>
            </text>
            <text id="Collections" font-family="SFProDisplay-Regular, SF Pro Display" font-size="50" font-weight="normal" fill="#FFFFFF">
                <tspan x="256" y="497">Collections</tspan>
            </text>
            <text id="Judgements" font-family="SFProDisplay-Regular, SF Pro Display" font-size="50" font-weight="normal" fill="#FFFFFF">
                <tspan x="608" y="158">Judgements</tspan>
            </text>
            <text id="Dont-let-bad-credit" font-family="SFProDisplay-Regular, SF Pro Display" font-size="48" font-weight="normal" fill="#FFFFFF">
                <tspan x="287" y="46">Dont let bad credit defeat you </tspan>
            </text>
            <text id="Credit-Broom-will-he" font-family="SFProDisplay-Regular, SF Pro Display" font-size="48" font-weight="normal" fill="#FFFFFF">
                <tspan x="150" y="1025">             Credit Broom will help you fix bad credit </tspan>
            </text>
        </g>
    </g>
</svg>