<?xml version="1.0" encoding="UTF-8"?>
<svg width="49px" height="35px" viewBox="0 0 49 35" version="1.1" xmlns="http://www.w3.org/2000/svg" xmlns:xlink="http://www.w3.org/1999/xlink">
    <title>log0110x110</title>
    <g id="Page-1" stroke="none" stroke-width="1" fill="none" fill-rule="evenodd">
        <g id="Group" fill-rule="nonzero">
            <g id="Group">
                <g>
                    <path d="M38.1,7.38 L8.12,7.38 C6.25,7.38 4.59,8.3 3.57,9.72 C3.55,9.75 3.53,9.78 3.51,9.81 C3.48,9.85 3.45,9.89 3.42,9.94 C3.4,9.97 3.38,10 3.36,10.04 C2.82,10.9 2.51,11.92 2.51,13.01 L2.51,19.92 L0.21,12.64 C-0.48,10.45 0.82,8.13 3.06,7.56 L32.85,0.08 C33.99,-0.21 35.16,0.38 35.61,1.45 L37.72,6.44 L38.1,7.38 Z" id="Path" fill="#05386B"></path>
                    <path d="M42.26,13 L42.26,31.38 C42.26,33.37 40.64,34.99 38.65,34.99 L8.7,34.99 C6.71,34.99 5.09,33.37 5.09,31.38 L5.09,13.58 C5.09,11.59 6.71,9.97 8.7,9.97 L39.23,9.97 C40.02,9.97 40.75,10.28 41.29,10.78 C41.87,11.32 42.24,12.09 42.25,12.95 C42.26,12.97 42.26,12.98 42.26,13 Z" id="Path" fill="#05386B"></path>
                    <rect id="Rectangle" fill="#FFFFFF" x="27.63" y="30" width="12.65" height="1.68"></rect>
                    <g transform="translate(34.000000, 21.000000)" fill="#FFFFFF" id="Rectangle">
                        <rect x="0.3" y="0.46" width="1.59" height="2.13"></rect>
                        <rect x="2.5" y="0.46" width="1.59" height="2.13"></rect>
                        <rect x="4.69" y="0.46" width="1.59" height="2.13"></rect>
                    </g>
                </g>
                <g transform="translate(11.000000, 6.000000)" fill="#FFFFFF" id="Path">
                    <path d="M3.6,12.23 L1.65,11.39 C1.23,11.21 0.92,10.83 0.83,10.38 L0.63,9.41 C0.63,9.41 -0.18,5.65 1.88,7.51 C3.94,9.37 12.4,12.42 14.91,12.01 C14.91,12.01 14.72,11.23 15.63,10.7 C16.53,10.17 17.39,9.54 18.16,10.45 C18.65,11.04 19.63,12.73 20.26,13.85 C20.59,14.43 20.4,15.17 19.82,15.52 L19.32,15.83 C19.32,15.83 18.06,16.7 17.33,16.12 C17.33,16.12 14.08,27.26 11.81,26.18 L9.85,24.94 C9.78,24.9 9.78,24.8 9.84,24.76 C10.29,24.43 11.81,23.15 13.36,19.84 C13.36,19.84 9.4,24.19 8.66,23.84 C8.14,23.59 7.72,23.18 7.51,22.97 C7.43,22.88 7.41,22.76 7.46,22.65 L8.13,21.21 L6.93,21.71 C6.82,21.76 6.68,21.73 6.6,21.63 L5.03,19.75 C4.99,19.7 5.02,19.62 5.08,19.61 C5.73,19.49 8.43,18.91 10.04,17.51 C9.99,17.56 9.83,17.57 9.76,17.58 C9.51,17.64 9.26,17.7 9.01,17.76 C8.26,17.93 7.51,18.07 6.74,18.15 C6.02,18.23 5.25,18.3 4.53,18.14 C4.24,18.07 3.89,17.88 3.74,17.6 C3.54,17.22 3.7,16.81 4.07,16.63 C4.43,16.46 4.86,16.38 5.24,16.25 C5.28,16.24 5.37,16.18 5.41,16.19 C5.07,16.15 4.74,16.1 4.41,16.04 C3.49,15.88 2.38,15.62 2.14,14.54 C2.05,14.15 2.16,13.73 2.33,13.39 C2.48,13.11 2.8,12.99 3.1,12.99 C3.55,12.98 3.98,13.09 4.42,13.12 C4.89,13.16 5.36,13.16 5.83,13.12 L3.6,12.23 Z"></path>
                    <path d="M36.92,1.8 L36.65,1.36 C36.35,0.86 35.7,0.71 35.2,1.01 L20.23,10.15 C19.73,10.45 19.58,11.1 19.88,11.6 L20.15,12.04 C20.45,12.54 21.1,12.69 21.6,12.39 L36.57,3.25 C37.07,2.95 37.22,2.3 36.92,1.8 Z"></path>
                </g>
            </g>
        </g>
    </g>
</svg>